
<svg width="1000" height="800" xmlns="http://www.w3.org/2000/svg">
  <title>Hexagon Triangle</title>
  
<defs>
  <marker id="arrowhead" markerWidth="10" markerHeight="7" refX="0" refY="3.5" orient="auto">
    <polygon points="0 0, 10 3.5, 0 7" fill="red" />
  </marker>
</defs>

  <g>
    <title>Layer 1</title>
    <path id="-6_-6_12" d="M517.3205080756887,110.0 L500.0,120.0 L482.6794919243112,110.0 L482.6794919243112,90.0 L500.0,80.0 L517.3205080756887,89.99999999999999 Z" fill="none" stroke="none" stroke-width="2" pointer-events="all"/>
<path id="-6_-5_11" d="M500.3205080756888,139.0 L483.0,149.0 L465.6794919243112,139.0 L465.6794919243112,119.0 L483.0,109.0 L500.3205080756888,118.99999999999999 Z" fill="none" stroke="none" stroke-width="2" pointer-events="all"/>
<path id="-5_-6_11" d="M534.3205080756887,139.0 L517.0,149.0 L499.6794919243112,139.0 L499.6794919243112,119.0 L517.0,109.0 L534.3205080756887,118.99999999999999 Z" fill="none" stroke="none" stroke-width="2" pointer-events="all"/>
<path id="-6_-4_10" d="M483.3205080756888,168.0 L466.0,178.0 L448.6794919243112,168.0 L448.6794919243112,148.0 L466.0,138.0 L483.3205080756888,148.0 Z" fill="none" stroke="none" stroke-width="2" pointer-events="all"/>
<path id="-5_-5_10" d="M517.3205080756887,168.0 L500.0,178.0 L482.6794919243112,168.0 L482.6794919243112,148.0 L500.0,138.0 L517.3205080756887,148.0 Z" fill="none" stroke="none" stroke-width="2" pointer-events="all"/>
<path id="-4_-6_10" d="M551.3205080756887,168.0 L534.0,178.0 L516.6794919243113,168.0 L516.6794919243113,148.0 L534.0,138.0 L551.3205080756887,148.0 Z" fill="none" stroke="none" stroke-width="2" pointer-events="all"/>
<path id="-6_-3_9" d="M466.3205080756888,197.0 L449.0,207.0 L431.6794919243112,197.0 L431.6794919243112,177.0 L449.0,167.0 L466.3205080756888,177.0 Z" fill="none" stroke="none" stroke-width="2" pointer-events="all"/>
<path id="-5_-4_9" d="M500.3205080756888,197.0 L483.0,207.0 L465.6794919243112,197.0 L465.6794919243112,177.0 L483.0,167.0 L500.3205080756888,177.0 Z" fill="none" stroke="none" stroke-width="2" pointer-events="all"/>
<path id="-4_-5_9" d="M534.3205080756887,197.0 L517.0,207.0 L499.6794919243112,197.0 L499.6794919243112,177.0 L517.0,167.0 L534.3205080756887,177.0 Z" fill="none" stroke="none" stroke-width="2" pointer-events="all"/>
<path id="-3_-6_9" d="M568.3205080756887,197.0 L551.0,207.0 L533.6794919243113,197.0 L533.6794919243113,177.0 L551.0,167.0 L568.3205080756887,177.0 Z" fill="none" stroke="none" stroke-width="2" pointer-events="all"/>
<path id="-6_-2_8" d="M449.3205080756888,226.0 L432.0,236.0 L414.6794919243112,226.0 L414.6794919243112,206.0 L432.0,196.0 L449.3205080756888,206.0 Z" fill="none" stroke="none" stroke-width="2" pointer-events="all"/>
<path id="-5_-3_8" d="M483.3205080756888,226.0 L466.0,236.0 L448.6794919243112,226.0 L448.6794919243112,206.0 L466.0,196.0 L483.3205080756888,206.0 Z" fill="none" stroke="none" stroke-width="2" pointer-events="all"/>
<path id="-4_-4_8" d="M517.3205080756887,226.0 L500.0,236.0 L482.6794919243112,226.0 L482.6794919243112,206.0 L500.0,196.0 L517.3205080756887,206.0 Z" fill="none" stroke="none" stroke-width="2" pointer-events="all"/>
<path id="-3_-5_8" d="M551.3205080756887,226.0 L534.0,236.0 L516.6794919243113,226.0 L516.6794919243113,206.0 L534.0,196.0 L551.3205080756887,206.0 Z" fill="none" stroke="none" stroke-width="2" pointer-events="all"/>
<path id="-2_-6_8" d="M585.3205080756887,226.0 L568.0,236.0 L550.6794919243113,226.0 L550.6794919243113,206.0 L568.0,196.0 L585.3205080756887,206.0 Z" fill="none" stroke="none" stroke-width="2" pointer-events="all"/>
<path id="-6_-1_7" d="M432.3205080756888,255.0 L415.0,265.0 L397.6794919243112,255.0 L397.6794919243112,235.0 L415.0,225.0 L432.3205080756888,235.0 Z" fill="none" stroke="none" stroke-width="2" pointer-events="all"/>
<path id="-5_-2_7" d="M466.3205080756888,255.0 L449.0,265.0 L431.6794919243112,255.0 L431.6794919243112,235.0 L449.0,225.0 L466.3205080756888,235.0 Z" fill="none" stroke="none" stroke-width="2" pointer-events="all"/>
<path id="-4_-3_7" d="M500.3205080756888,255.0 L483.0,265.0 L465.6794919243112,255.0 L465.6794919243112,235.0 L483.0,225.0 L500.3205080756888,235.0 Z" fill="none" stroke="none" stroke-width="2" pointer-events="all"/>
<path id="-3_-4_7" d="M534.3205080756887,255.0 L517.0,265.0 L499.6794919243112,255.0 L499.6794919243112,235.0 L517.0,225.0 L534.3205080756887,235.0 Z" fill="none" stroke="none" stroke-width="2" pointer-events="all"/>
<path id="-2_-5_7" d="M568.3205080756887,255.0 L551.0,265.0 L533.6794919243113,255.0 L533.6794919243113,235.0 L551.0,225.0 L568.3205080756887,235.0 Z" fill="none" stroke="none" stroke-width="2" pointer-events="all"/>
<path id="-1_-6_7" d="M602.3205080756887,255.0 L585.0,265.0 L567.6794919243113,255.0 L567.6794919243113,235.0 L585.0,225.0 L602.3205080756887,235.0 Z" fill="none" stroke="none" stroke-width="2" pointer-events="all"/>
<path id="-6_0_6" d="M415.3205080756888,284.0 L398.0,294.0 L380.6794919243112,284.0 L380.6794919243112,264.0 L398.0,254.0 L415.3205080756888,264.0 Z" fill="none" stroke="none" stroke-width="2" pointer-events="all"/>
<path id="-5_-1_6" d="M449.3205080756888,284.0 L432.0,294.0 L414.6794919243112,284.0 L414.6794919243112,264.0 L432.0,254.0 L449.3205080756888,264.0 Z" fill="none" stroke="none" stroke-width="2" pointer-events="all"/>
<path id="-4_-2_6" d="M483.3205080756888,284.0 L466.0,294.0 L448.6794919243112,284.0 L448.6794919243112,264.0 L466.0,254.0 L483.3205080756888,264.0 Z" fill="none" stroke="none" stroke-width="2" pointer-events="all"/>
<path id="-3_-3_6" d="M517.3205080756887,284.0 L500.0,294.0 L482.6794919243112,284.0 L482.6794919243112,264.0 L500.0,254.0 L517.3205080756887,264.0 Z" fill="none" stroke="none" stroke-width="2" pointer-events="all"/>
<path id="-2_-4_6" d="M551.3205080756887,284.0 L534.0,294.0 L516.6794919243113,284.0 L516.6794919243113,264.0 L534.0,254.0 L551.3205080756887,264.0 Z" fill="none" stroke="none" stroke-width="2" pointer-events="all"/>
<path id="-1_-5_6" d="M585.3205080756887,284.0 L568.0,294.0 L550.6794919243113,284.0 L550.6794919243113,264.0 L568.0,254.0 L585.3205080756887,264.0 Z" fill="none" stroke="none" stroke-width="2" pointer-events="all"/>
<path id="0_-6_6" d="M619.3205080756887,284.0 L602.0,294.0 L584.6794919243113,284.0 L584.6794919243113,264.0 L602.0,254.0 L619.3205080756887,264.0 Z" fill="none" stroke="none" stroke-width="2" pointer-events="all"/>
<path id="-6_1_5" d="M398.3205080756888,313.0 L381.0,323.0 L363.6794919243112,313.0 L363.6794919243112,293.0 L381.0,283.0 L398.3205080756888,293.0 Z" fill="none" stroke="none" stroke-width="2" pointer-events="all"/>
<path id="-5_0_5" d="M432.3205080756888,313.0 L415.0,323.0 L397.6794919243112,313.0 L397.6794919243112,293.0 L415.0,283.0 L432.3205080756888,293.0 Z" fill="none" stroke="none" stroke-width="2" pointer-events="all"/>
<path id="-4_-1_5" d="M466.3205080756888,313.0 L449.0,323.0 L431.6794919243112,313.0 L431.6794919243112,293.0 L449.0,283.0 L466.3205080756888,293.0 Z" fill="none" stroke="none" stroke-width="2" pointer-events="all"/>
<path id="-3_-2_5" d="M500.3205080756888,313.0 L483.0,323.0 L465.6794919243112,313.0 L465.6794919243112,293.0 L483.0,283.0 L500.3205080756888,293.0 Z" fill="none" stroke="none" stroke-width="2" pointer-events="all"/>
<path id="-2_-3_5" d="M534.3205080756887,313.0 L517.0,323.0 L499.6794919243112,313.0 L499.6794919243112,293.0 L517.0,283.0 L534.3205080756887,293.0 Z" fill="none" stroke="none" stroke-width="2" pointer-events="all"/>
<path id="-1_-4_5" d="M568.3205080756887,313.0 L551.0,323.0 L533.6794919243113,313.0 L533.6794919243113,293.0 L551.0,283.0 L568.3205080756887,293.0 Z" fill="none" stroke="none" stroke-width="2" pointer-events="all"/>
<path id="0_-5_5" d="M602.3205080756887,313.0 L585.0,323.0 L567.6794919243113,313.0 L567.6794919243113,293.0 L585.0,283.0 L602.3205080756887,293.0 Z" fill="none" stroke="none" stroke-width="2" pointer-events="all"/>
<path id="1_-6_5" d="M636.3205080756887,313.0 L619.0,323.0 L601.6794919243113,313.0 L601.6794919243113,293.0 L619.0,283.0 L636.3205080756887,293.0 Z" fill="none" stroke="none" stroke-width="2" pointer-events="all"/>
<path id="-6_2_4" d="M381.3205080756888,342.0 L364.0,352.0 L346.6794919243112,342.0 L346.6794919243112,322.0 L364.0,312.0 L381.3205080756888,322.0 Z" fill="none" stroke="none" stroke-width="2" pointer-events="all"/>
<path id="-5_1_4" d="M415.3205080756888,342.0 L398.0,352.0 L380.6794919243112,342.0 L380.6794919243112,322.0 L398.0,312.0 L415.3205080756888,322.0 Z" fill="none" stroke="none" stroke-width="2" pointer-events="all"/>
<path id="-4_0_4" d="M449.3205080756888,342.0 L432.0,352.0 L414.6794919243112,342.0 L414.6794919243112,322.0 L432.0,312.0 L449.3205080756888,322.0 Z" fill="none" stroke="none" stroke-width="2" pointer-events="all"/>
<path id="-3_-1_4" d="M483.3205080756888,342.0 L466.0,352.0 L448.6794919243112,342.0 L448.6794919243112,322.0 L466.0,312.0 L483.3205080756888,322.0 Z" fill="none" stroke="none" stroke-width="2" pointer-events="all"/>
<path id="-2_-2_4" d="M517.3205080756887,342.0 L500.0,352.0 L482.6794919243112,342.0 L482.6794919243112,322.0 L500.0,312.0 L517.3205080756887,322.0 Z" fill="none" stroke="none" stroke-width="2" pointer-events="all"/>
<path id="-1_-3_4" d="M551.3205080756887,342.0 L534.0,352.0 L516.6794919243113,342.0 L516.6794919243113,322.0 L534.0,312.0 L551.3205080756887,322.0 Z" fill="none" stroke="none" stroke-width="2" pointer-events="all"/>
<path id="0_-4_4" d="M585.3205080756887,342.0 L568.0,352.0 L550.6794919243113,342.0 L550.6794919243113,322.0 L568.0,312.0 L585.3205080756887,322.0 Z" fill="none" stroke="none" stroke-width="2" pointer-events="all"/>
<path id="1_-5_4" d="M619.3205080756887,342.0 L602.0,352.0 L584.6794919243113,342.0 L584.6794919243113,322.0 L602.0,312.0 L619.3205080756887,322.0 Z" fill="none" stroke="none" stroke-width="2" pointer-events="all"/>
<path id="2_-6_4" d="M653.3205080756887,342.0 L636.0,352.0 L618.6794919243113,342.0 L618.6794919243113,322.0 L636.0,312.0 L653.3205080756887,322.0 Z" fill="none" stroke="none" stroke-width="2" pointer-events="all"/>
<path id="-6_3_3" d="M364.3205080756888,371.0 L347.0,381.0 L329.6794919243112,371.0 L329.6794919243112,351.0 L347.0,341.0 L364.3205080756888,351.0 Z" fill="none" stroke="none" stroke-width="2" pointer-events="all"/>
<path id="-5_2_3" d="M398.3205080756888,371.0 L381.0,381.0 L363.6794919243112,371.0 L363.6794919243112,351.0 L381.0,341.0 L398.3205080756888,351.0 Z" fill="none" stroke="none" stroke-width="2" pointer-events="all"/>
<path id="-4_1_3" d="M432.3205080756888,371.0 L415.0,381.0 L397.6794919243112,371.0 L397.6794919243112,351.0 L415.0,341.0 L432.3205080756888,351.0 Z" fill="none" stroke="none" stroke-width="2" pointer-events="all"/>
<path id="-3_0_3" d="M466.3205080756888,371.0 L449.0,381.0 L431.6794919243112,371.0 L431.6794919243112,351.0 L449.0,341.0 L466.3205080756888,351.0 Z" fill="none" stroke="none" stroke-width="2" pointer-events="all"/>
<path id="-2_-1_3" d="M500.3205080756888,371.0 L483.0,381.0 L465.6794919243112,371.0 L465.6794919243112,351.0 L483.0,341.0 L500.3205080756888,351.0 Z" fill="none" stroke="none" stroke-width="2" pointer-events="all"/>
<path id="-1_-2_3" d="M534.3205080756887,371.0 L517.0,381.0 L499.6794919243112,371.0 L499.6794919243112,351.0 L517.0,341.0 L534.3205080756887,351.0 Z" fill="none" stroke="none" stroke-width="2" pointer-events="all"/>
<path id="0_-3_3" d="M568.3205080756887,371.0 L551.0,381.0 L533.6794919243113,371.0 L533.6794919243113,351.0 L551.0,341.0 L568.3205080756887,351.0 Z" fill="none" stroke="none" stroke-width="2" pointer-events="all"/>
<path id="1_-4_3" d="M602.3205080756887,371.0 L585.0,381.0 L567.6794919243113,371.0 L567.6794919243113,351.0 L585.0,341.0 L602.3205080756887,351.0 Z" fill="none" stroke="none" stroke-width="2" pointer-events="all"/>
<path id="2_-5_3" d="M636.3205080756887,371.0 L619.0,381.0 L601.6794919243113,371.0 L601.6794919243113,351.0 L619.0,341.0 L636.3205080756887,351.0 Z" fill="none" stroke="none" stroke-width="2" pointer-events="all"/>
<path id="3_-6_3" d="M670.3205080756887,371.0 L653.0,381.0 L635.6794919243113,371.0 L635.6794919243113,351.0 L653.0,341.0 L670.3205080756887,351.0 Z" fill="none" stroke="none" stroke-width="2" pointer-events="all"/>
<path id="-6_4_2" d="M347.3205080756888,400.0 L330.0,410.0 L312.6794919243112,400.0 L312.6794919243112,380.0 L330.0,370.0 L347.3205080756888,380.0 Z" fill="none" stroke="none" stroke-width="2" pointer-events="all"/>
<path id="-5_3_2" d="M381.3205080756888,400.0 L364.0,410.0 L346.6794919243112,400.0 L346.6794919243112,380.0 L364.0,370.0 L381.3205080756888,380.0 Z" fill="none" stroke="none" stroke-width="2" pointer-events="all"/>
<path id="-4_2_2" d="M415.3205080756888,400.0 L398.0,410.0 L380.6794919243112,400.0 L380.6794919243112,380.0 L398.0,370.0 L415.3205080756888,380.0 Z" fill="none" stroke="none" stroke-width="2" pointer-events="all"/>
<path id="-3_1_2" d="M449.3205080756888,400.0 L432.0,410.0 L414.6794919243112,400.0 L414.6794919243112,380.0 L432.0,370.0 L449.3205080756888,380.0 Z" fill="none" stroke="none" stroke-width="2" pointer-events="all"/>
<path id="-2_0_2" d="M483.3205080756888,400.0 L466.0,410.0 L448.6794919243112,400.0 L448.6794919243112,380.0 L466.0,370.0 L483.3205080756888,380.0 Z" fill="none" stroke="none" stroke-width="2" pointer-events="all"/>
<path id="-1_-1_2" d="M517.3205080756887,400.0 L500.0,410.0 L482.6794919243112,400.0 L482.6794919243112,380.0 L500.0,370.0 L517.3205080756887,380.0 Z" fill="none" stroke="none" stroke-width="2" pointer-events="all"/>
<path id="0_-2_2" d="M551.3205080756887,400.0 L534.0,410.0 L516.6794919243113,400.0 L516.6794919243113,380.0 L534.0,370.0 L551.3205080756887,380.0 Z" fill="none" stroke="none" stroke-width="2" pointer-events="all"/>
<path id="1_-3_2" d="M585.3205080756887,400.0 L568.0,410.0 L550.6794919243113,400.0 L550.6794919243113,380.0 L568.0,370.0 L585.3205080756887,380.0 Z" fill="none" stroke="none" stroke-width="2" pointer-events="all"/>
<path id="2_-4_2" d="M619.3205080756887,400.0 L602.0,410.0 L584.6794919243113,400.0 L584.6794919243113,380.0 L602.0,370.0 L619.3205080756887,380.0 Z" fill="none" stroke="none" stroke-width="2" pointer-events="all"/>
<path id="3_-5_2" d="M653.3205080756887,400.0 L636.0,410.0 L618.6794919243113,400.0 L618.6794919243113,380.0 L636.0,370.0 L653.3205080756887,380.0 Z" fill="none" stroke="none" stroke-width="2" pointer-events="all"/>
<path id="4_-6_2" d="M687.3205080756887,400.0 L670.0,410.0 L652.6794919243113,400.0 L652.6794919243113,380.0 L670.0,370.0 L687.3205080756887,380.0 Z" fill="none" stroke="none" stroke-width="2" pointer-events="all"/>
<path id="-6_5_1" d="M330.3205080756888,429.0 L313.0,439.0 L295.6794919243112,429.0 L295.6794919243112,409.0 L313.0,399.0 L330.3205080756888,409.0 Z" fill="none" stroke="none" stroke-width="2" pointer-events="all"/>
<path id="-5_4_1" d="M364.3205080756888,429.0 L347.0,439.0 L329.6794919243112,429.0 L329.6794919243112,409.0 L347.0,399.0 L364.3205080756888,409.0 Z" fill="none" stroke="none" stroke-width="2" pointer-events="all"/>
<path id="-4_3_1" d="M398.3205080756888,429.0 L381.0,439.0 L363.6794919243112,429.0 L363.6794919243112,409.0 L381.0,399.0 L398.3205080756888,409.0 Z" fill="none" stroke="none" stroke-width="2" pointer-events="all"/>
<path id="-3_2_1" d="M432.3205080756888,429.0 L415.0,439.0 L397.6794919243112,429.0 L397.6794919243112,409.0 L415.0,399.0 L432.3205080756888,409.0 Z" fill="none" stroke="none" stroke-width="2" pointer-events="all"/>
<path id="-2_1_1" d="M466.3205080756888,429.0 L449.0,439.0 L431.6794919243112,429.0 L431.6794919243112,409.0 L449.0,399.0 L466.3205080756888,409.0 Z" fill="none" stroke="none" stroke-width="2" pointer-events="all"/>
<path id="-1_0_1" d="M500.3205080756888,429.0 L483.0,439.0 L465.6794919243112,429.0 L465.6794919243112,409.0 L483.0,399.0 L500.3205080756888,409.0 Z" fill="none" stroke="none" stroke-width="2" pointer-events="all"/>
<path id="0_-1_1" d="M534.3205080756887,429.0 L517.0,439.0 L499.6794919243112,429.0 L499.6794919243112,409.0 L517.0,399.0 L534.3205080756887,409.0 Z" fill="none" stroke="none" stroke-width="2" pointer-events="all"/>
<path id="1_-2_1" d="M568.3205080756887,429.0 L551.0,439.0 L533.6794919243113,429.0 L533.6794919243113,409.0 L551.0,399.0 L568.3205080756887,409.0 Z" fill="none" stroke="none" stroke-width="2" pointer-events="all"/>
<path id="2_-3_1" d="M602.3205080756887,429.0 L585.0,439.0 L567.6794919243113,429.0 L567.6794919243113,409.0 L585.0,399.0 L602.3205080756887,409.0 Z" fill="none" stroke="none" stroke-width="2" pointer-events="all"/>
<path id="3_-4_1" d="M636.3205080756887,429.0 L619.0,439.0 L601.6794919243113,429.0 L601.6794919243113,409.0 L619.0,399.0 L636.3205080756887,409.0 Z" fill="none" stroke="none" stroke-width="2" pointer-events="all"/>
<path id="4_-5_1" d="M670.3205080756887,429.0 L653.0,439.0 L635.6794919243113,429.0 L635.6794919243113,409.0 L653.0,399.0 L670.3205080756887,409.0 Z" fill="none" stroke="none" stroke-width="2" pointer-events="all"/>
<path id="5_-6_1" d="M704.3205080756887,429.0 L687.0,439.0 L669.6794919243113,429.0 L669.6794919243113,409.0 L687.0,399.0 L704.3205080756887,409.0 Z" fill="none" stroke="none" stroke-width="2" pointer-events="all"/>
<path id="-6_6_0" d="M313.3205080756888,458.0 L296.0,468.0 L278.6794919243112,458.0 L278.6794919243112,438.0 L296.0,428.0 L313.3205080756888,438.0 Z" fill="none" stroke="none" stroke-width="2" pointer-events="all"/>
<path id="-5_5_0" d="M347.3205080756888,458.0 L330.0,468.0 L312.6794919243112,458.0 L312.6794919243112,438.0 L330.0,428.0 L347.3205080756888,438.0 Z" fill="none" stroke="none" stroke-width="2" pointer-events="all"/>
<path id="-4_4_0" d="M381.3205080756888,458.0 L364.0,468.0 L346.6794919243112,458.0 L346.6794919243112,438.0 L364.0,428.0 L381.3205080756888,438.0 Z" fill="none" stroke="none" stroke-width="2" pointer-events="all"/>
<path id="-3_3_0" d="M415.3205080756888,458.0 L398.0,468.0 L380.6794919243112,458.0 L380.6794919243112,438.0 L398.0,428.0 L415.3205080756888,438.0 Z" fill="none" stroke="none" stroke-width="2" pointer-events="all"/>
<path id="-2_2_0" d="M449.3205080756888,458.0 L432.0,468.0 L414.6794919243112,458.0 L414.6794919243112,438.0 L432.0,428.0 L449.3205080756888,438.0 Z" fill="none" stroke="none" stroke-width="2" pointer-events="all"/>
<path id="-1_1_0" d="M483.3205080756888,458.0 L466.0,468.0 L448.6794919243112,458.0 L448.6794919243112,438.0 L466.0,428.0 L483.3205080756888,438.0 Z" fill="none" stroke="none" stroke-width="2" pointer-events="all"/>
<path id="0_0_0" d="M517.3205080756887,458.0 L500.0,468.0 L482.6794919243112,458.0 L482.6794919243112,438.0 L500.0,428.0 L517.3205080756887,438.0 Z" fill="#808080" stroke="none" stroke-width="2" pointer-events="all"/>
<path id="1_-1_0" d="M551.3205080756887,458.0 L534.0,468.0 L516.6794919243113,458.0 L516.6794919243113,438.0 L534.0,428.0 L551.3205080756887,438.0 Z" fill="none" stroke="none" stroke-width="2" pointer-events="all"/>
<path id="2_-2_0" d="M585.3205080756887,458.0 L568.0,468.0 L550.6794919243113,458.0 L550.6794919243113,438.0 L568.0,428.0 L585.3205080756887,438.0 Z" fill="none" stroke="none" stroke-width="2" pointer-events="all"/>
<path id="3_-3_0" d="M619.3205080756887,458.0 L602.0,468.0 L584.6794919243113,458.0 L584.6794919243113,438.0 L602.0,428.0 L619.3205080756887,438.0 Z" fill="none" stroke="none" stroke-width="2" pointer-events="all"/>
<path id="4_-4_0" d="M653.3205080756887,458.0 L636.0,468.0 L618.6794919243113,458.0 L618.6794919243113,438.0 L636.0,428.0 L653.3205080756887,438.0 Z" fill="none" stroke="none" stroke-width="2" pointer-events="all"/>
<path id="5_-5_0" d="M687.3205080756887,458.0 L670.0,468.0 L652.6794919243113,458.0 L652.6794919243113,438.0 L670.0,428.0 L687.3205080756887,438.0 Z" fill="none" stroke="none" stroke-width="2" pointer-events="all"/>
<path id="6_-6_0" d="M721.3205080756887,458.0 L704.0,468.0 L686.6794919243113,458.0 L686.6794919243113,438.0 L704.0,428.0 L721.3205080756887,438.0 Z" fill="none" stroke="none" stroke-width="2" pointer-events="all"/>
<path id="-6_7_-1" d="M296.3205080756888,487.0 L279.0,497.0 L261.6794919243112,487.0 L261.6794919243112,467.0 L279.0,457.0 L296.3205080756888,467.0 Z" fill="none" stroke="none" stroke-width="2" pointer-events="all"/>
<path id="-5_6_-1" d="M330.3205080756888,487.0 L313.0,497.0 L295.6794919243112,487.0 L295.6794919243112,467.0 L313.0,457.0 L330.3205080756888,467.0 Z" fill="none" stroke="none" stroke-width="2" pointer-events="all"/>
<path id="-4_5_-1" d="M364.3205080756888,487.0 L347.0,497.0 L329.6794919243112,487.0 L329.6794919243112,467.0 L347.0,457.0 L364.3205080756888,467.0 Z" fill="none" stroke="none" stroke-width="2" pointer-events="all"/>
<path id="-3_4_-1" d="M398.3205080756888,487.0 L381.0,497.0 L363.6794919243112,487.0 L363.6794919243112,467.0 L381.0,457.0 L398.3205080756888,467.0 Z" fill="none" stroke="none" stroke-width="2" pointer-events="all"/>
<path id="-2_3_-1" d="M432.3205080756888,487.0 L415.0,497.0 L397.6794919243112,487.0 L397.6794919243112,467.0 L415.0,457.0 L432.3205080756888,467.0 Z" fill="none" stroke="none" stroke-width="2" pointer-events="all"/>
<path id="-1_2_-1" d="M466.3205080756888,487.0 L449.0,497.0 L431.6794919243112,487.0 L431.6794919243112,467.0 L449.0,457.0 L466.3205080756888,467.0 Z" fill="none" stroke="none" stroke-width="2" pointer-events="all"/>
<path id="0_1_-1" d="M500.3205080756888,487.0 L483.0,497.0 L465.6794919243112,487.0 L465.6794919243112,467.0 L483.0,457.0 L500.3205080756888,467.0 Z" fill="none" stroke="none" stroke-width="2" pointer-events="all"/>
<path id="1_0_-1" d="M534.3205080756887,487.0 L517.0,497.0 L499.6794919243112,487.0 L499.6794919243112,467.0 L517.0,457.0 L534.3205080756887,467.0 Z" fill="none" stroke="none" stroke-width="2" pointer-events="all"/>
<path id="2_-1_-1" d="M568.3205080756887,487.0 L551.0,497.0 L533.6794919243113,487.0 L533.6794919243113,467.0 L551.0,457.0 L568.3205080756887,467.0 Z" fill="none" stroke="none" stroke-width="2" pointer-events="all"/>
<path id="3_-2_-1" d="M602.3205080756887,487.0 L585.0,497.0 L567.6794919243113,487.0 L567.6794919243113,467.0 L585.0,457.0 L602.3205080756887,467.0 Z" fill="none" stroke="none" stroke-width="2" pointer-events="all"/>
<path id="4_-3_-1" d="M636.3205080756887,487.0 L619.0,497.0 L601.6794919243113,487.0 L601.6794919243113,467.0 L619.0,457.0 L636.3205080756887,467.0 Z" fill="none" stroke="none" stroke-width="2" pointer-events="all"/>
<path id="5_-4_-1" d="M670.3205080756887,487.0 L653.0,497.0 L635.6794919243113,487.0 L635.6794919243113,467.0 L653.0,457.0 L670.3205080756887,467.0 Z" fill="none" stroke="none" stroke-width="2" pointer-events="all"/>
<path id="6_-5_-1" d="M704.3205080756887,487.0 L687.0,497.0 L669.6794919243113,487.0 L669.6794919243113,467.0 L687.0,457.0 L704.3205080756887,467.0 Z" fill="none" stroke="none" stroke-width="2" pointer-events="all"/>
<path id="7_-6_-1" d="M738.3205080756887,487.0 L721.0,497.0 L703.6794919243113,487.0 L703.6794919243113,467.0 L721.0,457.0 L738.3205080756887,467.0 Z" fill="none" stroke="none" stroke-width="2" pointer-events="all"/>
<path id="-6_8_-2" d="M279.3205080756888,516.0 L262.0,526.0 L244.67949192431124,516.0 L244.67949192431124,496.0 L262.0,486.0 L279.3205080756888,496.0 Z" fill="none" stroke="none" stroke-width="2" pointer-events="all"/>
<path id="-5_7_-2" d="M313.3205080756888,516.0 L296.0,526.0 L278.6794919243112,516.0 L278.6794919243112,496.0 L296.0,486.0 L313.3205080756888,496.0 Z" fill="none" stroke="none" stroke-width="2" pointer-events="all"/>
<path id="-4_6_-2" d="M347.3205080756888,516.0 L330.0,526.0 L312.6794919243112,516.0 L312.6794919243112,496.0 L330.0,486.0 L347.3205080756888,496.0 Z" fill="none" stroke="none" stroke-width="2" pointer-events="all"/>
<path id="-3_5_-2" d="M381.3205080756888,516.0 L364.0,526.0 L346.6794919243112,516.0 L346.6794919243112,496.0 L364.0,486.0 L381.3205080756888,496.0 Z" fill="none" stroke="none" stroke-width="2" pointer-events="all"/>
<path id="-2_4_-2" d="M415.3205080756888,516.0 L398.0,526.0 L380.6794919243112,516.0 L380.6794919243112,496.0 L398.0,486.0 L415.3205080756888,496.0 Z" fill="none" stroke="none" stroke-width="2" pointer-events="all"/>
<path id="-1_3_-2" d="M449.3205080756888,516.0 L432.0,526.0 L414.6794919243112,516.0 L414.6794919243112,496.0 L432.0,486.0 L449.3205080756888,496.0 Z" fill="none" stroke="none" stroke-width="2" pointer-events="all"/>
<path id="0_2_-2" d="M483.3205080756888,516.0 L466.0,526.0 L448.6794919243112,516.0 L448.6794919243112,496.0 L466.0,486.0 L483.3205080756888,496.0 Z" fill="none" stroke="none" stroke-width="2" pointer-events="all"/>
<path id="1_1_-2" d="M517.3205080756887,516.0 L500.0,526.0 L482.6794919243112,516.0 L482.6794919243112,496.0 L500.0,486.0 L517.3205080756887,496.0 Z" fill="none" stroke="none" stroke-width="2" pointer-events="all"/>
<path id="2_0_-2" d="M551.3205080756887,516.0 L534.0,526.0 L516.6794919243113,516.0 L516.6794919243113,496.0 L534.0,486.0 L551.3205080756887,496.0 Z" fill="none" stroke="none" stroke-width="2" pointer-events="all"/>
<path id="3_-1_-2" d="M585.3205080756887,516.0 L568.0,526.0 L550.6794919243113,516.0 L550.6794919243113,496.0 L568.0,486.0 L585.3205080756887,496.0 Z" fill="none" stroke="none" stroke-width="2" pointer-events="all"/>
<path id="4_-2_-2" d="M619.3205080756887,516.0 L602.0,526.0 L584.6794919243113,516.0 L584.6794919243113,496.0 L602.0,486.0 L619.3205080756887,496.0 Z" fill="none" stroke="none" stroke-width="2" pointer-events="all"/>
<path id="5_-3_-2" d="M653.3205080756887,516.0 L636.0,526.0 L618.6794919243113,516.0 L618.6794919243113,496.0 L636.0,486.0 L653.3205080756887,496.0 Z" fill="none" stroke="none" stroke-width="2" pointer-events="all"/>
<path id="6_-4_-2" d="M687.3205080756887,516.0 L670.0,526.0 L652.6794919243113,516.0 L652.6794919243113,496.0 L670.0,486.0 L687.3205080756887,496.0 Z" fill="none" stroke="none" stroke-width="2" pointer-events="all"/>
<path id="7_-5_-2" d="M721.3205080756887,516.0 L704.0,526.0 L686.6794919243113,516.0 L686.6794919243113,496.0 L704.0,486.0 L721.3205080756887,496.0 Z" fill="none" stroke="none" stroke-width="2" pointer-events="all"/>
<path id="8_-6_-2" d="M755.3205080756887,516.0 L738.0,526.0 L720.6794919243113,516.0 L720.6794919243113,496.0 L738.0,486.0 L755.3205080756887,496.0 Z" fill="none" stroke="none" stroke-width="2" pointer-events="all"/>
<path id="-6_9_-3" d="M262.3205080756888,545.0 L245.0,555.0 L227.67949192431124,545.0 L227.67949192431124,525.0 L245.0,515.0 L262.3205080756888,525.0 Z" fill="none" stroke="none" stroke-width="2" pointer-events="all"/>
<path id="-5_8_-3" d="M296.3205080756888,545.0 L279.0,555.0 L261.6794919243112,545.0 L261.6794919243112,525.0 L279.0,515.0 L296.3205080756888,525.0 Z" fill="none" stroke="none" stroke-width="2" pointer-events="all"/>
<path id="-4_7_-3" d="M330.3205080756888,545.0 L313.0,555.0 L295.6794919243112,545.0 L295.6794919243112,525.0 L313.0,515.0 L330.3205080756888,525.0 Z" fill="none" stroke="none" stroke-width="2" pointer-events="all"/>
<path id="-3_6_-3" d="M364.3205080756888,545.0 L347.0,555.0 L329.6794919243112,545.0 L329.6794919243112,525.0 L347.0,515.0 L364.3205080756888,525.0 Z" fill="none" stroke="none" stroke-width="2" pointer-events="all"/>
<path id="-2_5_-3" d="M398.3205080756888,545.0 L381.0,555.0 L363.6794919243112,545.0 L363.6794919243112,525.0 L381.0,515.0 L398.3205080756888,525.0 Z" fill="none" stroke="none" stroke-width="2" pointer-events="all"/>
<path id="-1_4_-3" d="M432.3205080756888,545.0 L415.0,555.0 L397.6794919243112,545.0 L397.6794919243112,525.0 L415.0,515.0 L432.3205080756888,525.0 Z" fill="none" stroke="none" stroke-width="2" pointer-events="all"/>
<path id="0_3_-3" d="M466.3205080756888,545.0 L449.0,555.0 L431.6794919243112,545.0 L431.6794919243112,525.0 L449.0,515.0 L466.3205080756888,525.0 Z" fill="none" stroke="none" stroke-width="2" pointer-events="all"/>
<path id="1_2_-3" d="M500.3205080756888,545.0 L483.0,555.0 L465.6794919243112,545.0 L465.6794919243112,525.0 L483.0,515.0 L500.3205080756888,525.0 Z" fill="none" stroke="none" stroke-width="2" pointer-events="all"/>
<path id="2_1_-3" d="M534.3205080756887,545.0 L517.0,555.0 L499.6794919243112,545.0 L499.6794919243112,525.0 L517.0,515.0 L534.3205080756887,525.0 Z" fill="none" stroke="none" stroke-width="2" pointer-events="all"/>
<path id="3_0_-3" d="M568.3205080756887,545.0 L551.0,555.0 L533.6794919243113,545.0 L533.6794919243113,525.0 L551.0,515.0 L568.3205080756887,525.0 Z" fill="none" stroke="none" stroke-width="2" pointer-events="all"/>
<path id="4_-1_-3" d="M602.3205080756887,545.0 L585.0,555.0 L567.6794919243113,545.0 L567.6794919243113,525.0 L585.0,515.0 L602.3205080756887,525.0 Z" fill="none" stroke="none" stroke-width="2" pointer-events="all"/>
<path id="5_-2_-3" d="M636.3205080756887,545.0 L619.0,555.0 L601.6794919243113,545.0 L601.6794919243113,525.0 L619.0,515.0 L636.3205080756887,525.0 Z" fill="none" stroke="none" stroke-width="2" pointer-events="all"/>
<path id="6_-3_-3" d="M670.3205080756887,545.0 L653.0,555.0 L635.6794919243113,545.0 L635.6794919243113,525.0 L653.0,515.0 L670.3205080756887,525.0 Z" fill="none" stroke="none" stroke-width="2" pointer-events="all"/>
<path id="7_-4_-3" d="M704.3205080756887,545.0 L687.0,555.0 L669.6794919243113,545.0 L669.6794919243113,525.0 L687.0,515.0 L704.3205080756887,525.0 Z" fill="none" stroke="none" stroke-width="2" pointer-events="all"/>
<path id="8_-5_-3" d="M738.3205080756887,545.0 L721.0,555.0 L703.6794919243113,545.0 L703.6794919243113,525.0 L721.0,515.0 L738.3205080756887,525.0 Z" fill="none" stroke="none" stroke-width="2" pointer-events="all"/>
<path id="9_-6_-3" d="M772.3205080756887,545.0 L755.0,555.0 L737.6794919243113,545.0 L737.6794919243113,525.0 L755.0,515.0 L772.3205080756887,525.0 Z" fill="none" stroke="none" stroke-width="2" pointer-events="all"/>
<path id="-6_10_-4" d="M245.32050807568876,574.0 L228.0,584.0 L210.67949192431124,574.0 L210.67949192431124,554.0 L228.0,544.0 L245.32050807568876,554.0 Z" fill="none" stroke="none" stroke-width="2" pointer-events="all"/>
<path id="-5_9_-4" d="M279.3205080756888,574.0 L262.0,584.0 L244.67949192431124,574.0 L244.67949192431124,554.0 L262.0,544.0 L279.3205080756888,554.0 Z" fill="none" stroke="none" stroke-width="2" pointer-events="all"/>
<path id="-4_8_-4" d="M313.3205080756888,574.0 L296.0,584.0 L278.6794919243112,574.0 L278.6794919243112,554.0 L296.0,544.0 L313.3205080756888,554.0 Z" fill="none" stroke="none" stroke-width="2" pointer-events="all"/>
<path id="-3_7_-4" d="M347.3205080756888,574.0 L330.0,584.0 L312.6794919243112,574.0 L312.6794919243112,554.0 L330.0,544.0 L347.3205080756888,554.0 Z" fill="none" stroke="none" stroke-width="2" pointer-events="all"/>
<path id="-2_6_-4" d="M381.3205080756888,574.0 L364.0,584.0 L346.6794919243112,574.0 L346.6794919243112,554.0 L364.0,544.0 L381.3205080756888,554.0 Z" fill="none" stroke="none" stroke-width="2" pointer-events="all"/>
<path id="-1_5_-4" d="M415.3205080756888,574.0 L398.0,584.0 L380.6794919243112,574.0 L380.6794919243112,554.0 L398.0,544.0 L415.3205080756888,554.0 Z" fill="none" stroke="none" stroke-width="2" pointer-events="all"/>
<path id="0_4_-4" d="M449.3205080756888,574.0 L432.0,584.0 L414.6794919243112,574.0 L414.6794919243112,554.0 L432.0,544.0 L449.3205080756888,554.0 Z" fill="none" stroke="none" stroke-width="2" pointer-events="all"/>
<path id="1_3_-4" d="M483.3205080756888,574.0 L466.0,584.0 L448.6794919243112,574.0 L448.6794919243112,554.0 L466.0,544.0 L483.3205080756888,554.0 Z" fill="none" stroke="none" stroke-width="2" pointer-events="all"/>
<path id="2_2_-4" d="M517.3205080756887,574.0 L500.0,584.0 L482.6794919243112,574.0 L482.6794919243112,554.0 L500.0,544.0 L517.3205080756887,554.0 Z" fill="none" stroke="none" stroke-width="2" pointer-events="all"/>
<path id="3_1_-4" d="M551.3205080756887,574.0 L534.0,584.0 L516.6794919243113,574.0 L516.6794919243113,554.0 L534.0,544.0 L551.3205080756887,554.0 Z" fill="none" stroke="none" stroke-width="2" pointer-events="all"/>
<path id="4_0_-4" d="M585.3205080756887,574.0 L568.0,584.0 L550.6794919243113,574.0 L550.6794919243113,554.0 L568.0,544.0 L585.3205080756887,554.0 Z" fill="none" stroke="none" stroke-width="2" pointer-events="all"/>
<path id="5_-1_-4" d="M619.3205080756887,574.0 L602.0,584.0 L584.6794919243113,574.0 L584.6794919243113,554.0 L602.0,544.0 L619.3205080756887,554.0 Z" fill="none" stroke="none" stroke-width="2" pointer-events="all"/>
<path id="6_-2_-4" d="M653.3205080756887,574.0 L636.0,584.0 L618.6794919243113,574.0 L618.6794919243113,554.0 L636.0,544.0 L653.3205080756887,554.0 Z" fill="none" stroke="none" stroke-width="2" pointer-events="all"/>
<path id="7_-3_-4" d="M687.3205080756887,574.0 L670.0,584.0 L652.6794919243113,574.0 L652.6794919243113,554.0 L670.0,544.0 L687.3205080756887,554.0 Z" fill="none" stroke="none" stroke-width="2" pointer-events="all"/>
<path id="8_-4_-4" d="M721.3205080756887,574.0 L704.0,584.0 L686.6794919243113,574.0 L686.6794919243113,554.0 L704.0,544.0 L721.3205080756887,554.0 Z" fill="none" stroke="none" stroke-width="2" pointer-events="all"/>
<path id="9_-5_-4" d="M755.3205080756887,574.0 L738.0,584.0 L720.6794919243113,574.0 L720.6794919243113,554.0 L738.0,544.0 L755.3205080756887,554.0 Z" fill="none" stroke="none" stroke-width="2" pointer-events="all"/>
<path id="10_-6_-4" d="M789.3205080756887,574.0 L772.0,584.0 L754.6794919243113,574.0 L754.6794919243113,554.0 L772.0,544.0 L789.3205080756887,554.0 Z" fill="none" stroke="none" stroke-width="2" pointer-events="all"/>
<path id="-6_11_-5" d="M228.32050807568876,603.0 L211.0,613.0 L193.67949192431124,603.0 L193.67949192431124,583.0 L211.0,573.0 L228.32050807568876,583.0 Z" fill="none" stroke="none" stroke-width="2" pointer-events="all"/>
<path id="-5_10_-5" d="M262.3205080756888,603.0 L245.0,613.0 L227.67949192431124,603.0 L227.67949192431124,583.0 L245.0,573.0 L262.3205080756888,583.0 Z" fill="none" stroke="none" stroke-width="2" pointer-events="all"/>
<path id="-4_9_-5" d="M296.3205080756888,603.0 L279.0,613.0 L261.6794919243112,603.0 L261.6794919243112,583.0 L279.0,573.0 L296.3205080756888,583.0 Z" fill="none" stroke="none" stroke-width="2" pointer-events="all"/>
<path id="-3_8_-5" d="M330.3205080756888,603.0 L313.0,613.0 L295.6794919243112,603.0 L295.6794919243112,583.0 L313.0,573.0 L330.3205080756888,583.0 Z" fill="none" stroke="none" stroke-width="2" pointer-events="all"/>
<path id="-2_7_-5" d="M364.3205080756888,603.0 L347.0,613.0 L329.6794919243112,603.0 L329.6794919243112,583.0 L347.0,573.0 L364.3205080756888,583.0 Z" fill="none" stroke="none" stroke-width="2" pointer-events="all"/>
<path id="-1_6_-5" d="M398.3205080756888,603.0 L381.0,613.0 L363.6794919243112,603.0 L363.6794919243112,583.0 L381.0,573.0 L398.3205080756888,583.0 Z" fill="none" stroke="none" stroke-width="2" pointer-events="all"/>
<path id="0_5_-5" d="M432.3205080756888,603.0 L415.0,613.0 L397.6794919243112,603.0 L397.6794919243112,583.0 L415.0,573.0 L432.3205080756888,583.0 Z" fill="none" stroke="none" stroke-width="2" pointer-events="all"/>
<path id="1_4_-5" d="M466.3205080756888,603.0 L449.0,613.0 L431.6794919243112,603.0 L431.6794919243112,583.0 L449.0,573.0 L466.3205080756888,583.0 Z" fill="none" stroke="none" stroke-width="2" pointer-events="all"/>
<path id="2_3_-5" d="M500.3205080756888,603.0 L483.0,613.0 L465.6794919243112,603.0 L465.6794919243112,583.0 L483.0,573.0 L500.3205080756888,583.0 Z" fill="none" stroke="none" stroke-width="2" pointer-events="all"/>
<path id="3_2_-5" d="M534.3205080756887,603.0 L517.0,613.0 L499.6794919243112,603.0 L499.6794919243112,583.0 L517.0,573.0 L534.3205080756887,583.0 Z" fill="none" stroke="none" stroke-width="2" pointer-events="all"/>
<path id="4_1_-5" d="M568.3205080756887,603.0 L551.0,613.0 L533.6794919243113,603.0 L533.6794919243113,583.0 L551.0,573.0 L568.3205080756887,583.0 Z" fill="none" stroke="none" stroke-width="2" pointer-events="all"/>
<path id="5_0_-5" d="M602.3205080756887,603.0 L585.0,613.0 L567.6794919243113,603.0 L567.6794919243113,583.0 L585.0,573.0 L602.3205080756887,583.0 Z" fill="none" stroke="none" stroke-width="2" pointer-events="all"/>
<path id="6_-1_-5" d="M636.3205080756887,603.0 L619.0,613.0 L601.6794919243113,603.0 L601.6794919243113,583.0 L619.0,573.0 L636.3205080756887,583.0 Z" fill="none" stroke="none" stroke-width="2" pointer-events="all"/>
<path id="7_-2_-5" d="M670.3205080756887,603.0 L653.0,613.0 L635.6794919243113,603.0 L635.6794919243113,583.0 L653.0,573.0 L670.3205080756887,583.0 Z" fill="none" stroke="none" stroke-width="2" pointer-events="all"/>
<path id="8_-3_-5" d="M704.3205080756887,603.0 L687.0,613.0 L669.6794919243113,603.0 L669.6794919243113,583.0 L687.0,573.0 L704.3205080756887,583.0 Z" fill="none" stroke="none" stroke-width="2" pointer-events="all"/>
<path id="9_-4_-5" d="M738.3205080756887,603.0 L721.0,613.0 L703.6794919243113,603.0 L703.6794919243113,583.0 L721.0,573.0 L738.3205080756887,583.0 Z" fill="none" stroke="none" stroke-width="2" pointer-events="all"/>
<path id="10_-5_-5" d="M772.3205080756887,603.0 L755.0,613.0 L737.6794919243113,603.0 L737.6794919243113,583.0 L755.0,573.0 L772.3205080756887,583.0 Z" fill="none" stroke="none" stroke-width="2" pointer-events="all"/>
<path id="11_-6_-5" d="M806.3205080756887,603.0 L789.0,613.0 L771.6794919243113,603.0 L771.6794919243113,583.0 L789.0,573.0 L806.3205080756887,583.0 Z" fill="none" stroke="none" stroke-width="2" pointer-events="all"/>
<path id="-6_12_-6" d="M211.32050807568876,632.0 L194.0,642.0 L176.67949192431124,632.0 L176.67949192431124,612.0 L194.0,602.0 L211.32050807568876,612.0 Z" fill="none" stroke="none" stroke-width="2" pointer-events="all"/>
<path id="-5_11_-6" d="M245.32050807568876,632.0 L228.0,642.0 L210.67949192431124,632.0 L210.67949192431124,612.0 L228.0,602.0 L245.32050807568876,612.0 Z" fill="none" stroke="none" stroke-width="2" pointer-events="all"/>
<path id="-4_10_-6" d="M279.3205080756888,632.0 L262.0,642.0 L244.67949192431124,632.0 L244.67949192431124,612.0 L262.0,602.0 L279.3205080756888,612.0 Z" fill="none" stroke="none" stroke-width="2" pointer-events="all"/>
<path id="-3_9_-6" d="M313.3205080756888,632.0 L296.0,642.0 L278.6794919243112,632.0 L278.6794919243112,612.0 L296.0,602.0 L313.3205080756888,612.0 Z" fill="none" stroke="none" stroke-width="2" pointer-events="all"/>
<path id="-2_8_-6" d="M347.3205080756888,632.0 L330.0,642.0 L312.6794919243112,632.0 L312.6794919243112,612.0 L330.0,602.0 L347.3205080756888,612.0 Z" fill="none" stroke="none" stroke-width="2" pointer-events="all"/>
<path id="-1_7_-6" d="M381.3205080756888,632.0 L364.0,642.0 L346.6794919243112,632.0 L346.6794919243112,612.0 L364.0,602.0 L381.3205080756888,612.0 Z" fill="none" stroke="none" stroke-width="2" pointer-events="all"/>
<path id="0_6_-6" d="M415.3205080756888,632.0 L398.0,642.0 L380.6794919243112,632.0 L380.6794919243112,612.0 L398.0,602.0 L415.3205080756888,612.0 Z" fill="none" stroke="none" stroke-width="2" pointer-events="all"/>
<path id="1_5_-6" d="M449.3205080756888,632.0 L432.0,642.0 L414.6794919243112,632.0 L414.6794919243112,612.0 L432.0,602.0 L449.3205080756888,612.0 Z" fill="none" stroke="none" stroke-width="2" pointer-events="all"/>
<path id="2_4_-6" d="M483.3205080756888,632.0 L466.0,642.0 L448.6794919243112,632.0 L448.6794919243112,612.0 L466.0,602.0 L483.3205080756888,612.0 Z" fill="none" stroke="none" stroke-width="2" pointer-events="all"/>
<path id="3_3_-6" d="M517.3205080756887,632.0 L500.0,642.0 L482.6794919243112,632.0 L482.6794919243112,612.0 L500.0,602.0 L517.3205080756887,612.0 Z" fill="none" stroke="none" stroke-width="2" pointer-events="all"/>
<path id="4_2_-6" d="M551.3205080756887,632.0 L534.0,642.0 L516.6794919243113,632.0 L516.6794919243113,612.0 L534.0,602.0 L551.3205080756887,612.0 Z" fill="none" stroke="none" stroke-width="2" pointer-events="all"/>
<path id="5_1_-6" d="M585.3205080756887,632.0 L568.0,642.0 L550.6794919243113,632.0 L550.6794919243113,612.0 L568.0,602.0 L585.3205080756887,612.0 Z" fill="none" stroke="none" stroke-width="2" pointer-events="all"/>
<path id="6_0_-6" d="M619.3205080756887,632.0 L602.0,642.0 L584.6794919243113,632.0 L584.6794919243113,612.0 L602.0,602.0 L619.3205080756887,612.0 Z" fill="none" stroke="none" stroke-width="2" pointer-events="all"/>
<path id="7_-1_-6" d="M653.3205080756887,632.0 L636.0,642.0 L618.6794919243113,632.0 L618.6794919243113,612.0 L636.0,602.0 L653.3205080756887,612.0 Z" fill="none" stroke="none" stroke-width="2" pointer-events="all"/>
<path id="8_-2_-6" d="M687.3205080756887,632.0 L670.0,642.0 L652.6794919243113,632.0 L652.6794919243113,612.0 L670.0,602.0 L687.3205080756887,612.0 Z" fill="none" stroke="none" stroke-width="2" pointer-events="all"/>
<path id="9_-3_-6" d="M721.3205080756887,632.0 L704.0,642.0 L686.6794919243113,632.0 L686.6794919243113,612.0 L704.0,602.0 L721.3205080756887,612.0 Z" fill="none" stroke="none" stroke-width="2" pointer-events="all"/>
<path id="10_-4_-6" d="M755.3205080756887,632.0 L738.0,642.0 L720.6794919243113,632.0 L720.6794919243113,612.0 L738.0,602.0 L755.3205080756887,612.0 Z" fill="none" stroke="none" stroke-width="2" pointer-events="all"/>
<path id="11_-5_-6" d="M789.3205080756887,632.0 L772.0,642.0 L754.6794919243113,632.0 L754.6794919243113,612.0 L772.0,602.0 L789.3205080756887,612.0 Z" fill="none" stroke="none" stroke-width="2" pointer-events="all"/>
<path id="12_-6_-6" d="M823.3205080756887,632.0 L806.0,642.0 L788.6794919243113,632.0 L788.6794919243113,612.0 L806.0,602.0 L823.3205080756887,612.0 Z" fill="none" stroke="none" stroke-width="2" pointer-events="all"/>
<path d="M500.0,78 L179.5706005997577,633.0 L820.4293994002423,633.0 Z" fill="none" stroke="black" stroke-width="3" pointer-events="none"/>
<path d="M500.0,448 L499.99999999999994,68.0" stroke="red" stroke-width="3" marker-end="url(#arrowhead)" pointer-events="none"/>
<path d="M500.0,448 L829.0896534380868,638.0" stroke="red" stroke-width="3" marker-end="url(#arrowhead)" pointer-events="none"/>
<path d="M500.0,448 L170.9103465619133,638.0" stroke="red" stroke-width="3" marker-end="url(#arrowhead)" pointer-events="none"/>
<text x="500.0" y="25" font-family="Verdana" font-size="25" fill="black" text-anchor="middle">Government</text>
<text x="100" y="680" font-family="Verdana" font-size="25" fill="black" text-anchor="middle">Community</text>
<text x="910" y="680" font-family="Verdana" font-size="25" fill="black" text-anchor="middle">Private Sector</text>

  </g>
</svg>
